{"title":"Housebound 2014 BRRip x264 AAC-MiLLENiUM","uid":11555094,"size":746688805,"categoryP":"video","categoryS":"movies","magnet":"?xt=urn:btih:00a4278859a7983dd45c6b9463b4d0aea86464e3&amp;dn=Housebound+2014+BRRip+x264+AAC-MiLLENiUM&amp;tr=udp%3A%2F%2Ftracker.openbittorrent.com%3A80&amp;tr=udp%3A%2F%2Fopen.demonii.com%3A1337&amp;tr=udp%3A%2F%2Ftracker.coppersurfer.tk%3A6969&amp;tr=udp%3A%2F%2Fexodus.desync.com%3A6969","seeders":0,"leechers":0,"uploader":"TvTeam","files":4,"time":1416815429,"description":" &lt;a href=&quot;http://www.torrenting.com&quot; rel=&quot;nofollow&quot; target=&quot;_NEW&quot;&gt;http://www.torrenting.com&lt;/a&gt;\n\nSign up is OPEN - for time being. Come and have fun.\n\n------------------------------------------------------------------[img]http://s15.postimg.org/w6xvi2wfv/MV5_BMTUx_NTA5_NTAz_M15_BMl5_Ban_Bn_Xk_Ft_ZTgw_ODE2_NDky_Mj_E.jpg[/img]\n \n[color=red][b]Housebound 2014 BRRip x264 AAC-MiLLENiUM[/b][/color]\n\n[color=red]General[/color]\n\nSource...............: 720p.BluRay.x264-TOPCAT [THANKS]\nIMDb Information.... : http://www.imdb.com/title/tt3504048/\nSample Included......: yes\n\nGeneral\nComplete name                            : Housebound 2014 BRRip x264 AAC-MiLLENiUM.mp4\nFormat                                   : MPEG-4\nFormat profile                           : Base Media\nCodec ID                                 : isom\nFile size                                : 704 MiB\nDuration                                 : 1h 51mn\nOverall bit rate mode                    : Variable\nOverall bit rate                         : 882 Kbps\nEncoded date                             : UTC 2014-11-24 06:09:21\nTagged date                              : UTC 2014-11-24 06:09:21\n\nVideo\nID                                       : 1\nFormat                                   : AVC\nFormat/Info                              : Advanced Video Codec\nFormat profile                           : &lt;a class=&quot;__cf_email__&quot; href=&quot;/cdn-cgi/l/email-protection&quot; data-cfemail=&quot;93dbfaf4fbd3dfa7bda2&quot;&gt;[email&amp;#160;protected]&lt;/a&gt;&lt;script cf-hash='f9e31' type=&quot;text/javascript&quot;&gt;\n/* &lt;![CDATA[ */!function(){try{var t=&quot;currentScript&quot;in document?document.currentScript:function(){for(var t=document.getElementsByTagName(&quot;script&quot;),e=t.length;e--;)if(t[e].getAttribute(&quot;cf-hash&quot;))return t[e]}();if(t&amp;&amp;t.previousSibling){var e,r,n,i,c=t.previousSibling,a=c.getAttribute(&quot;data-cfemail&quot;);if(a){for(e=&quot;&quot;,r=parseInt(a.substr(0,2),16),n=2;a.length-n;n+=2)i=parseInt(a.substr(n,2),16)^r,e+=String.fromCharCode(i);e=document.createTextNode(e),c.parentNode.replaceChild(e,c)}}}catch(u){}}();/* ]]&gt; */&lt;/script&gt;\nFormat settings, CABAC                   : Yes\nFormat settings, ReFrames                : 3 frames\nCodec ID                                 : avc1\nCodec ID/Info                            : Advanced Video Coding\nDuration                                 : 1h 51mn\nBit rate mode                            : Variable\nBit rate                                 : 563 Kbps\nMaximum bit rate                         : 40.0 Mbps\nWidth                                    : 720 pixels\nHeight                                   : 304 pixels\nDisplay aspect ratio                     : 2.35:1\nFrame rate mode                          : Constant\nFrame rate                               : 23.976 fps\nColor space                              : YUV\nChroma subsampling                       : 4:2:0\nBit depth                                : 8 bits\nScan type                                : Progressive\nBits/(Pixel*Frame)                       : 0.107\nStream size                              : 449 MiB (64%)\nWriting library                          : x264 core 142 r2479 dd79a61\nColor range                              : Full\n\nAudio\nID                                       : 2\nFormat                                   : AAC\nFormat/Info                              : Advanced Audio Codec\nFormat profile                           : LC\nCodec ID                                 : 40\nDuration                                 : 1h 51mn\nBit rate mode                            : Variable\nBit rate                                 : 315 Kbps\nMaximum bit rate                         : 407 Kbps\nChannel(s)                               : 6 channels\nChannel positions                        : Front: L C R, Side: L R, LFE\nSampling rate                            : 48.0 KHz\nCompression mode                         : Lossy\nStream size                              : 251 MiB (36%)\nLanguage                                 : English\nEncoded date                             : UTC 2014-11-24 04:00:35\nTagged date                              : UTC 2014-11-24 06:13:49\n\n[color=red]Plot[/color]\n\nKylie Bucknell is forced to return to the house she grew up in when the court places her on home detention. Her punishment is made all the more unbearable by the fact she has to live there with her mother Miriam - a well-intentioned blabbermouth who's convinced that the house is haunted. \n \n[color=red]Screenshots[/color]\n\n[img]http://s30.postimg.org/ufuuvmr8h/vlcsnap_2014_11_24_06h29m01s11.jpg[/img]\n[img]http://s30.postimg.org/ctrl4l8ip/vlcsnap_2014_11_24_06h29m39s132.jpg[/img]\n[img]http://s30.postimg.org/xb7y2hv8h/vlcsnap_2014_11_24_06h30m26s94.jpg[/img]\n[img]http://s30.postimg.org/di0fnj78h/vlcsnap_2014_11_24_06h30m57s157.jpg[/img]\n[img]http://s30.postimg.org/numq9m0rl/vlcsnap_2014_11_24_06h32m50s1.jpg[/img]","torrent":{"xt":"urn:btih:00a4278859a7983dd45c6b9463b4d0aea86464e3","amp;dn":"Housebound+2014+BRRip+x264+AAC-MiLLENiUM","amp;tr":["udp%3A%2F%2Ftracker.openbittorrent.com%3A80","udp%3A%2F%2Fopen.demonii.com%3A1337","udp%3A%2F%2Ftracker.coppersurfer.tk%3A6969","udp%3A%2F%2Fexodus.desync.com%3A6969"],"infoHash":"00a4278859a7983dd45c6b9463b4d0aea86464e3","infoHashBuffer":{"type":"Buffer","data":[0,164,39,136,89,167,152,61,212,92,107,148,99,180,208,174,168,100,100,227]},"announce":[],"urlList":[]}}